REM MD5 54f28c4c09b951ae5b67595ce6fe8a6d
FILE "Defcon 5 (Italy).bin" BINARY
  TRACK 01 MODE2/2352
    INDEX 01 00:00:00
  TRACK 02 AUDIO
    INDEX 00 35:09:46
    INDEX 01 35:11:46
  TRACK 03 AUDIO
    INDEX 00 46:09:52
    INDEX 01 46:11:52
REM LEADOUT 49:18:45
